<svg xmlns="http://www.w3.org/2000/svg" version="1.1" xmlns:xlink="http://www.w3.org/1999/xlink" width="512" height="512" x="0" y="0" viewBox="0 0 24 24" style="enable-background:new 0 0 512 512" xml:space="preserve" class=""><g><path d="M13.5 22.5c0 .83-.67 1.5-1.5 1.5s-1.5-.67-1.5-1.5.67-1.5 1.5-1.5 1.5.67 1.5 1.5ZM17 21c-.83 0-1.5.67-1.5 1.5S16.17 24 17 24s1.5-.67 1.5-1.5S17.83 21 17 21Zm5 0c-.83 0-1.5.67-1.5 1.5S21.17 24 22 24s1.5-.67 1.5-1.5S22.83 21 22 21ZM7 21c-.83 0-1.5.67-1.5 1.5S6.17 24 7 24s1.5-.67 1.5-1.5S7.83 21 7 21Zm-5 0c-.83 0-1.5.67-1.5 1.5S1.17 24 2 24s1.5-.67 1.5-1.5S2.83 21 2 21ZM14.48 1.03C13.82.37 12.94 0 12 0s-1.81.36-2.45 1L4.96 5.42c-.6.58-.62 1.52-.04 2.12s1.52.61 2.12.04l3.46-3.33V17.5c0 .83.67 1.5 1.5 1.5s1.5-.67 1.5-1.5V4.25l3.46 3.33a1.502 1.502 0 0 0 2.12-.04 1.5 1.5 0 0 0-.04-2.12l-4.56-4.39Z" fill="#82e2c6" opacity="1" data-original="#000000" class=""></path></g></svg>