<?xml version="1.0" encoding="UTF-8"?>
<svg width="512pt" height="512pt" version="1.1" viewBox="0 0 512 512" xmlns="http://www.w3.org/2000/svg">
 <path d="m386.56 16.383h-261.12c-60.414 0-109.05 48.641-109.05 109.05v261.12c0 60.414 48.641 109.05 109.05 109.05h261.12c60.414 0 109.05-48.641 109.05-109.05v-261.12c0.003907-60.414-48.637-109.05-109.05-109.05zm-27.648 240.64v-89.602l-209.92 209.92c-4.0977 4.0977-10.238 4.0977-14.336 0s-4.0977-10.238 0-14.336l209.92-209.92-89.598 0.003906c-9.7266 0-14.336-11.777-7.6797-18.434 2.0469-2.0469 4.6094-3.0703 7.6797-3.0703h115.2c6.1445 0 10.754 4.6094 10.754 10.754v115.2c0 3.0703-1.0234 5.6328-3.0703 7.6797-7.1719 6.6523-18.949 1.5352-18.949-8.1953z"/>
</svg>
