<?xml version="1.0" encoding="UTF-8"?>
<svg width="512pt" height="512pt" version="1.1" viewBox="0 0 512 512" xmlns="http://www.w3.org/2000/svg">
 <g fill="#010202">
  <path d="m108.71 212.95c30.168 19.035 57.594 37.617 82.07 55.059 12.238 8.7227 23.734 17.164 34.473 25.238 5.3438 4.0703 10.523 8.0117 15.523 11.82 5.2617 4.125 10.344 8.1094 15.227 11.945 6.8359-5.9648 13.309-11.613 19.406-16.926 5.9023-4.9961 11.441-9.6836 16.605-14.051 10.395-8.6523 19.391-15.867 26.766-21.648 14.754-11.555 23.035-17.363 23.035-17.363 13.5-11.637 20.926-17.762 24.961-20.891-7.0547 4.0078-21.238 13.566-21.238 13.566l8.2656-5.6875 13.363-10.988-9.0312 5.9492c4.3945-4.3477 23.117-17.895 23.117-17.895-13.805 6.1719-108.68 79.992-108.68 79.992 0.77344-1.3203 3.0352-3.7188 6.4062-6.8906 16.879-13.508 80.723-64.516 96.828-76.16l-0.039062-0.050781c-15.902 11.5-78.324 61.359-96.148 75.617 24.508-22.887 102.25-83.363 102.25-83.363-10.004 4.1406-115.79 87.398-115.79 87.398 5.75-6.9531 116.83-93.445 116.83-93.445-4.8984 2.5977-26.129 19.145-52.652 40.387-13.227 10.676-27.816 22.461-42.387 34.223-7.2617 5.9141-14.516 11.82-21.59 17.582-3.0312 2.4688-6.0273 4.8984-8.9648 7.2891-0.44922 0.30078-0.88672 0.60547-1.3164 0.89062-0.41406-0.41797-0.8125-0.82422-1.1992-1.2148-2.9688-2.5547-5.8164-5.0039-8.5156-7.3203-6.0586-5.1875-11.449-9.8047-15.945-13.656-9.0078-7.6953-14.43-12.328-14.43-12.328-23.723-19.902-43.48-32.027-43.48-32.027-46.117-34.246-51.168-36.254-51.168-36.254l-4.2812 4.2031-2.3594 5.8633-4.6602 6.7891c-6.6562 7.75-1.2461 4.3477-1.2461 4.3477z"/>
  <path d="m366.78 226.14c1.8398-1.043 3.2188-1.7305 3.707-1.75 0.003906 0 3.3281-3.7031-3.707 1.75z"/>
  <path d="m238.26 276.96c1.043 0.88672 2.1719 1.8438 3.4336 2.9141l4.0391 3.4297c2.2031 1.8672 4.625 3.9258 7.2383 6.1445 0.53906 0.46094 1.0898 0.93359 1.6523 1.4023l1.1719 0.98828 0.18359 0.28125 0.32813-0.11328 1.2891-1.0664c4.5039-3.7227 9.1484-7.5586 13.82-11.414 9.3555-7.6992 18.828-15.488 27.504-22.629 20.066-16.465 32.082-26.164 35.719-28.836 0.32812-0.26953 33.168-27.355 53.977-41.527l-0.039062-0.050781c-20.809 14.176-53.648 41.262-53.977 41.527-3.6289 2.668-15.652 12.371-35.719 28.836-8.6797 7.1406-18.152 14.93-27.504 22.629-1.4062 1.1641-2.7656 2.2852-4.168 3.4414l-0.003906-0.003906c-1.4805 1.043-4.3125 3.2734-8.4062 6.6016-0.41797 0.33984-0.85547 0.69141-1.3008 1.0547-0.45703 0.36719-0.92578 0.74609-1.4062 1.1406l-0.035156-0.003906c-0.027344-0.011719-0.046876-0.027344-0.046876-0.027344l-17.719-14.777c-4.168-3.5391-6.5586-5.5586-6.5586-5.5586-0.48047-0.375-0.96875-0.74609-1.4531-1.1211l-17.848-14.879c-26.812-22.898-90.195-66.273-90.828-66.707l-0.039062 0.050781c0.55859 0.41016 56.047 40.996 108.68 81.594zm17.793 14.812 0.070313 0.015625 0.011718-0.011719c0.49219-0.39453 0.96094-0.77734 1.418-1.1523 0.44531-0.36328 0.87891-0.71875 1.3008-1.0547 3.4453-2.8008 5.9336-4.7656 7.543-5.9609-2.9609 2.4414-5.9492 4.9102-8.8281 7.2852l-1.2812 1.0586-0.26953 0.10156-0.11719-0.16406-0.050782-0.085937-1.1719-1c-0.55859-0.47656-1.1172-0.94531-1.6523-1.4023-2.6172-2.2227-5.0312-4.2734-7.2383-6.1445l-1.8633-1.582 12.074 10.066c-0.011719-0.003906 0.015625 0.023437 0.054687 0.03125zm-24.352-20.371s0.21875 0.18359 0.60547 0.51172l-0.73047-0.60938c0.039062 0.03125 0.085937 0.066406 0.125 0.097656zm-108.4-81.52c10.379 7.1367 64.777 44.758 89.102 65.527l16.562 13.809c-47.098-36.297-96.082-72.312-105.66-79.336z"/>
  <path d="m258.23 316.52 0.039063 0.050781s24.48-19.277 50.008-39.371c33.059-25.883 51.637-40.156 55.195-42.43l-0.03125-0.050782c-3.5703 2.2695-22.141 16.543-55.203 42.43-25.527 20.094-50.008 39.371-50.008 39.371z"/>
 </g>
</svg>
