<?xml version="1.0" encoding="UTF-8"?>
<svg width="512pt" height="512pt" version="1.1" viewBox="0 0 512 512" xmlns="http://www.w3.org/2000/svg">
<g fill="#010202">
  <path d="m145.22 285.86c-1.8398 1.043-3.2188 1.7305-3.7109 1.75 0 0-3.3242 3.7031 3.7109-1.75z"/>
  <path d="m129.09 317.83c4.8984-2.5977 26.129-19.145 52.652-40.387 13.227-10.676 27.816-22.461 42.387-34.223 7.2617-5.9141 14.516-11.82 21.59-17.582 3.0312-2.4688 6.0273-4.8984 8.9648-7.2891 0.44922-0.30078 0.88672-0.60547 1.3164-0.89062 0.41406 0.41797 0.8125 0.82422 1.1992 1.2148 2.9688 2.5547 5.8164 5.0039 8.5156 7.3203 6.0586 5.1875 11.449 9.8047 15.945 13.656 9.0078 7.6953 14.43 12.328 14.43 12.328 23.723 19.902 43.48 32.027 43.48 32.027 46.117 34.246 51.168 36.254 51.168 36.254l4.2812-4.2031 2.3594-5.8633 4.6602-6.7891c6.668-7.7578 1.2539-4.3555 1.2539-4.3555-30.168-19.035-57.594-37.617-82.07-55.059-12.238-8.7227-23.734-17.164-34.473-25.238-5.3438-4.0703-10.523-8.0117-15.523-11.82-5.2617-4.125-10.344-8.1094-15.227-11.945-6.8359 5.9648-13.309 11.613-19.406 16.926-5.9023 4.9961-11.441 9.6836-16.605 14.051-10.395 8.6523-19.391 15.867-26.766 21.648-14.754 11.555-23.035 17.363-23.035 17.363-13.5 11.637-20.926 17.758-24.961 20.891 7.0586-4.0078 21.238-13.566 21.238-13.566l-8.2656 5.6875-13.363 10.988 9.0312-5.9492c-4.3945 4.3477-23.117 17.895-23.117 17.895 13.805-6.168 108.68-79.984 108.68-79.984-0.77344 1.3203-3.0352 3.7188-6.4062 6.8906-16.871 13.496-80.727 64.512-96.836 76.164l0.039063 0.050781c15.906-11.504 78.348-61.375 96.152-75.629-24.504 22.883-102.25 83.367-102.25 83.367 10.004-4.1406 115.79-87.398 115.79-87.398-5.7461 6.957-116.83 93.449-116.83 93.449z"/>
  <path d="m177.39 283.97c3.6094-2.6562 15.965-12.625 35.723-28.836l12.742-10.484c4.8594-4 9.8242-8.0859 14.754-12.145 1.4062-1.1641 2.7656-2.2852 4.168-3.4414l0.003906 0.003906c1.4805-1.043 4.3125-3.2734 8.4062-6.6016 0.41797-0.33984 0.85547-0.69141 1.3008-1.0547 0.45703-0.36719 0.92578-0.74609 1.4062-1.1406l0.035156 0.003907c0.027344 0.011718 0.046875 0.027343 0.046875 0.027343l17.719 14.777c4.168 3.5391 6.5586 5.5625 6.5586 5.5625 0.48047 0.375 0.96875 0.74609 1.4531 1.1211l17.848 14.879c26.812 22.898 90.195 66.273 90.828 66.707l0.039062-0.050781c-0.55859-0.41016-56.047-40.996-108.68-81.594l-8.0117-6.6797c-1.043-0.88672-2.1719-1.8438-3.4336-2.9141l-4.0391-3.4297c-2.2031-1.8672-4.625-3.9258-7.2383-6.1445-0.53906-0.46094-1.0898-0.93359-1.6523-1.4023l-1.1719-0.98828-0.1875-0.28516-0.27344 0.097656-1.3516 1.0898c-4.5039 3.7227-9.1484 7.5586-13.82 11.414-4.9297 4.0586-9.8984 8.1445-14.762 12.145l-12.738 10.484c-19.754 16.211-32.109 26.18-35.723 28.836-0.32812 0.26953-33.164 27.355-53.977 41.527l0.039062 0.050781c20.824-14.176 53.656-41.262 53.984-41.535zm211.3 38.145c-10.379-7.1367-64.777-44.758-89.102-65.527l-16.562-13.809c47.098 36.297 96.082 72.312 105.66 79.336zm-108.27-81.422c-0.039062-0.03125-0.085937-0.066406-0.12891-0.097656 0 0-0.21875-0.18359-0.60547-0.51172zm-25.992-19.594 1.2891-1.0547 0.26562-0.10156 0.11328 0.16016 0.050782 0.085938 1.1719 1c0.55859 0.47656 1.1172 0.94531 1.6523 1.4023 2.6172 2.2227 5.0312 4.2734 7.2383 6.1445l1.8633 1.582-12.074-10.066c-0.003906 0-0.03125-0.027344-0.070312-0.035156l-0.070313-0.015625-0.011719 0.011719c-0.49219 0.39453-0.96094 0.77734-1.418 1.1523-0.44531 0.36328-0.87891 0.71875-1.3008 1.0547-3.4453 2.8008-5.9336 4.7656-7.543 5.9609 2.9805-2.4375 5.9648-4.9062 8.8438-7.2812z"/>
  <path d="m148.53 277.23 0.03125 0.050781c4.4922-2.8555 32.5-24.648 55.203-42.43 25.523-20.102 50.008-39.371 50.008-39.371l-0.039063-0.050781s-24.48 19.277-50.008 39.371c-22.703 17.773-50.715 39.566-55.195 42.43z"/>
 </g>
</svg>
