<?xml version="1.0" encoding="UTF-8"?>
<svg width="512pt" height="512pt" version="1.1" viewBox="0 0 512 512" xmlns="http://www.w3.org/2000/svg">
<g>
  <path d="m300.48 281.54-23.105 59.328h12.715l4.9062-13.484h23.723l5.1836 13.484h13.035l-23.766-59.328zm-1.8359 35.84 8.0195-22.016 8.1719 22.016z " fill="#64748b"/>
  <path fill="#64748b" d="m379.54 309.1c-2.793-1.4727-7.1055-2.9023-12.93-4.2656-5.8242-1.3672-9.4922-2.6875-11.008-3.9688-1.1953-1.0039-1.7695-2.1992-1.7695-3.6055 0-1.5352 0.64062-2.7734 1.8984-3.6914 1.9609-1.4297 4.6914-2.1562 8.1719-2.1562 3.3711 0 5.9102 0.66016 7.5938 2.0039s2.7734 3.5195 3.2852 6.5703l11.988-0.53516c-0.19141-5.4414-2.1562-9.8125-5.9297-13.078-3.7539-3.2656-9.3867-4.9062-16.832-4.9062-4.5664 0-8.4492 0.68359-11.668 2.0703-3.2227 1.3867-5.6953 3.3711-7.4023 6.0156-1.707 2.625-2.5586 5.4609-2.5586 8.4688 0 4.6914 1.8125 8.6836 5.4609 11.945 2.582 2.3242 7.1055 4.2656 13.523 5.8672 4.9922 1.2383 8.1914 2.1133 9.6016 2.582 2.0469 0.72656 3.5 1.5781 4.3086 2.5586 0.8125 0.98047 1.2383 2.1758 1.2383 3.5859 0 2.1758-0.98047 4.0977-2.9219 5.7188-1.9453 1.625-4.9102 2.5234-8.7734 2.5234-3.6484 0-6.5273-0.91797-8.6836-2.7539s-3.5859-4.7148-4.2656-8.6172l-11.648 1.1289c0.78906 6.6328 3.1797 11.691 7.2109 15.168 4.0117 3.4766 9.7695 5.207 17.281 5.207 5.1641 0 9.4492-0.72656 12.906-2.1758 3.457-1.4492 6.1211-3.6484 8.0195-6.6133 1.8984-2.9648 2.8359-6.1445 2.8359-9.5586 0-3.7539-0.78906-6.8906-2.3672-9.4492-1.5977-2.5391-3.7734-4.5664-6.5664-6.0391z"/>
  <path fill="#64748b" d="m398.53 281.54v59.328h11.988v-22.379h7.8086c5.418 0 9.5586-0.27734 12.414-0.85156 2.1133-0.44922 4.1797-1.3867 6.207-2.8164 2.0469-1.4062 3.7109-3.3711 5.0352-5.8438 1.3242-2.4766 1.9844-5.5469 1.9844-9.1953 0-4.7148-1.1523-8.5742-3.4336-11.562-2.2812-2.9883-5.1406-4.9062-8.5352-5.8008-2.2188-0.59766-6.9531-0.89453-14.25-0.89453l-19.219-0.003906zm31.211 13.059c1.2578 1.4062 1.8984 3.1797 1.8984 5.332 0 1.75-0.44922 3.2852-1.3672 4.6094-0.89453 1.3242-2.1562 2.3047-3.7344 2.9219-1.6016 0.61719-4.7578 0.9375-9.4727 0.9375h-6.5508v-16.832h5.7812c4.3086 0 7.1875 0.12891 8.6172 0.40625 1.9492 0.33984 3.5469 1.2383 4.8281 2.625z"/>
  <path fill="#64748b" d="m24.215 509.87h376.92c4.7148 0 8.5352-3.8203 8.5352-8.5352v-104.36h78.102c4.7148 0 8.5352-3.8203 8.5352-8.5352v-152.89c0-4.7148-3.8398-8.5352-8.5352-8.5352h-78.102l-0.003907-216.34c0-4.7148-3.8398-8.5352-8.5352-8.5352h-222.89c-1.1094 0-2.2188 0.23438-3.2656 0.66016-0.91797 0.38281-1.707 0.96094-2.4102 1.6016-0.125 0.10547-0.25391 0.12891-0.35938 0.23438l-154.03 154.03c-0.14844 0.14844-0.19141 0.32031-0.32031 0.46875-0.59766 0.70312-1.1523 1.4297-1.5156 2.3047-0.42578 1.0469-0.66016 2.1562-0.66016 3.2617v336.64c0 4.7148 3.8398 8.5352 8.5352 8.5352zm455.02-129.96h-237.14v-135.83h159 0.042968 0.042969 78.078l0.003906 135.83zm-86.633-152.87h-159.04c-4.7148 0-8.5352 3.8203-8.5352 8.5352v152.89c0 4.7148 3.8398 8.5352 8.5352 8.5352h159.04v95.805h-359.83v-324.23c44.074-40.32 112.77-7.5508 113.47-7.2109 3.2656 1.5586 7.1055 0.98047 9.6836-1.5156 2.582-2.5156 3.3281-6.3555 1.875-9.6172-1.3203-2.9883-31.188-72.789 24.238-131.03h210.56zm-255.68-162.97c-8.3828 30.016-4.7148 57.879-0.44922 75.137-16.297-5.3555-42.09-11.008-68.414-6.2695z"/>
 </g>
</svg>
