<?xml version="1.0" encoding="UTF-8"?>
<svg width="512pt" height="512pt" version="1.1" viewBox="0 0 512 512" xmlns="http://www.w3.org/2000/svg">
<g>
  <path fill="#64748b" d="m327.79 129.92h-4.7891v35.867l0.003906-0.003906c0 3.5352 2.8672 6.3984 6.3984 6.4023h34.227v-5.2461l-7.3203-7.5508h-20.504v-21.195z"/>
  <path fill="#64748b" d="m298.52 328.96v-84.504c0-1.6953-0.67188-3.3242-1.875-4.5234-1.1992-1.2031-2.8281-1.875-4.5234-1.875h-156.53c-1.6992 0-3.3242 0.67187-4.5273 1.875-1.1992 1.1992-1.875 2.8281-1.8711 4.5234v84.504c-0.003906 1.6992 0.67188 3.3242 1.8711 4.5273 1.2031 1.1992 2.8281 1.8711 4.5273 1.8711h156.53c1.6953 0 3.3242-0.67188 4.5234-1.8711 1.2031-1.2031 1.875-2.8281 1.875-4.5273zm-12.801-6.3984h-143.73v-71.703h143.73z"/>
  <path fill="#64748b" d="m381.02 157.31-43.211-44.645-0.003906-0.003907c-1.207-1.25-2.8711-1.9531-4.6055-1.9453h-165.81c-3.5352 0.003906-6.3984 2.8672-6.3984 6.4023v114.54h12.801l-0.003907-108.14h156.7l39.527 40.832v224.13h-196.22l-0.003907-46.719h-12.801v53.121l0.003907-0.003906c0 3.5352 2.8633 6.3984 6.3984 6.4023h209.02c1.6992 0.003906 3.3281-0.67188 4.5312-1.8711 1.1992-1.2031 1.8711-2.832 1.8711-4.5312v-233.11c0-1.6602-0.64453-3.2578-1.793-4.4531z"/>
  <path fill="#64748b" d="m155.87 307.98c3.7578 2.1484 8.0156 3.25 12.344 3.1992 12.336 0 17.855-7.7109 17.855-15.359 0-9.2578-6.7734-13.059-12.672-15.34-5.5-2.1289-5.5-3.1484-5.5-4.1367 0-1.3516 1.3828-2.1562 3.6992-2.1562 2.0117-0.003906 3.9883 0.48438 5.7617 1.4297 0.99609 0.54687 2.1797 0.62109 3.2383 0.20703 1.0547-0.41016 1.875-1.2695 2.2383-2.3477l1.4258-4.2148c0.58984-1.7422-0.14062-3.6602-1.7422-4.5703-3.3164-1.707-7.0117-2.5547-10.742-2.457-9.7266 0-16.785 6.1836-16.785 14.703 0 6.8359 4.4141 11.871 13.031 14.926 5.0781 1.9531 5.0781 3.1797 5.0781 4.3711 0 2.4688-2.4648 2.9883-4.5312 2.9883-2.5547-0.023437-5.0547-0.73047-7.25-2.0391-1.0156-0.625-2.2617-0.74219-3.375-0.32031-1.1172 0.42188-1.9688 1.3398-2.3125 2.4805l-1.3047 4.332v0.003907c-0.48828 1.6172 0.13672 3.3633 1.543 4.3008z"/>
  <path fill="#64748b" d="m210.89 308.59c0.41797 0.097656 0.82812 0.22656 1.2266 0.38672 4.7812 1.6523 10.172 3.2812 15.594 4.7109 0.32031 0.085938 0.65234 0.12891 0.98047 0.12891 1.6406 0 3.1016-1.043 3.6328-2.5938l1.4844-4.3359c0.36328-1.0625 0.24219-2.2305-0.32813-3.1992-0.57031-0.96484-1.5352-1.6328-2.6406-1.8281-0.97266-0.17188-2.0391-0.37109-3.1602-0.60156 4.1406-4.8984 6.2969-11.172 6.0391-17.582 0-14.184-8.9531-24.086-21.773-24.086-13.238 0-22.484 10.246-22.484 24.922 0.003907 13.703 8.7734 23.609 21.43 24.078zm-4.7031-34.879c1.4648-1.4922 3.4883-2.3008 5.582-2.2305 6.9688 0 8.8086 8.1289 8.8086 12.43 0 5.8984-2.3711 12.785-9.0469 12.785-2.0273 0.03125-3.9727-0.77734-5.3828-2.2344-2.418-2.793-3.6641-6.4102-3.4844-10.102-0.22266-3.8672 1.0352-7.6758 3.5234-10.648z"/>
  <path fill="#64748b" d="m247.43 310.55h22.266c2.1211 0 3.8398-1.7188 3.8398-3.8398v-4.3359c0-2.1211-1.7188-3.8398-3.8398-3.8398h-13.262v-31.844c0-2.1172-1.7188-3.8359-3.8398-3.8398h-5.1641c-2.1211 0.003906-3.8398 1.7227-3.8398 3.8398v40.02c0 2.1211 1.7188 3.8398 3.8398 3.8398z"/>
</g>
</svg>
