<?xml version="1.0" encoding="UTF-8"?>
<svg width="512pt" height="512pt" version="1.1" viewBox="0 0 512 512" xmlns="http://www.w3.org/2000/svg">
 <g>
  <path d="m31.102 511.99c7.9609 0 15.922-3.0391 21.984-9.1055l202.9-202.9 202.9 202.91c6.0742 6.0742 14.035 9.1055 21.996 9.1055 7.9609 0 15.922-3.0312 21.984-9.1055 12.148-12.145 12.148-31.836 0.011718-43.98l-202.9-202.91 202.9-202.9c12.148-12.145 12.148-31.836 0.011719-43.98-12.148-12.148-31.852-12.137-43.98 0l-449.8 449.79c-12.148 12.145-12.148 31.836-0.011719 43.98 6.0742 6.0742 14.035 9.1055 21.996 9.1055z"/>
  <path d="m82.238 126.22c0.011719 0.011719 0.023438 0.015625 0.03125 0.027344l87.949 87.949 43.98-43.98-87.949-87.949c-0.011719-0.003906-0.011719-0.015625-0.023438-0.027343l-73.121-73.129c-12.148-12.137-31.852-12.148-43.98 0-12.148 12.145-12.148 31.832-0.011719 43.98z"/>
 </g>
</svg>
